<?xml version="1.0" encoding="utf-8"?>
<svg version="1.1" id="Capa_1" x="0px" y="0px" width="98.82px" height="98.82px" viewBox="0 0 98.82 98.82" style="enable-background:new 0 0 98.82 98.82;" xmlns="http://www.w3.org/2000/svg" xmlns:xlink="http://www.w3.org/1999/xlink" xmlns:bx="https://boxy-svg.com">
  <defs>
    <linearGradient id="gradient-1" bx:pinned="true">
      <stop offset="0.03" style="stop-color: rgb(2, 0, 36);"/>
      <stop offset="0.28" style="stop-color: rgb(135, 217, 206);"/>
      <stop offset="0.97" style="stop-color: rgb(51, 92, 148);"/>
    </linearGradient>
    <linearGradient gradientUnits="userSpaceOnUse" x1="49.41" y1="1.634" x2="49.41" y2="97.188" id="gradient-1-1" xlink:href="#gradient-1"/>
    <linearGradient gradientUnits="userSpaceOnUse" x1="49.41" y1="1.634" x2="49.41" y2="97.188" id="gradient-1-2" gradientTransform="matrix(-0.307627, 0, -0.00001, 0.327691, 64.595901, 34.464344)" xlink:href="#gradient-1"/>
    <linearGradient gradientUnits="userSpaceOnUse" x1="49.41" y1="1.634" x2="49.41" y2="97.188" id="gradient-1-3" gradientTransform="matrix(-0.613092, 0, -0.00002, 0.593775, 79.125429, 21.202511)" xlink:href="#gradient-1"/>
  </defs>
  <g>
    <path d="M96.82,85.474H86.357c6.945-9.213,10.77-20.733,10.77-32.438c0-28.343-21.406-51.402-47.72-51.402 c-26.313,0-47.72,23.06-47.72,51.402c0,11.707,3.823,23.227,10.767,32.438H2c-1.104,0-2,0.896-2,2v7.714c0,1.104,0.896,2,2,2 h28.551c1.104,0,2-0.896,2-2v-8.593c0-0.476-0.169-0.935-0.477-1.296l-0.111-0.131c-0.112-0.133-0.242-0.25-0.385-0.348 c-9.826-6.81-15.931-18.988-15.931-31.785c0-20.646,15.145-37.442,33.76-37.442c18.614,0,33.759,16.797,33.759,37.442 c0,12.851-6.143,25.055-16.029,31.851c-0.543,0.373-0.867,0.989-0.867,1.647v8.653c0,1.104,0.896,2,2,2H96.82c1.104,0,2-0.896,2-2 v-7.714C98.82,86.369,97.926,85.474,96.82,85.474z" style="fill-opacity: 0.9; paint-order: fill; fill: url(#gradient-1-1); stroke-opacity: 0;"/>
    <path d="M 34.81 62.474 L 38.029 62.474 C 35.893 59.455 34.716 55.68 34.716 51.844 C 34.716 42.557 41.303 35 49.397 35 C 57.491 35 64.076 42.557 64.076 51.844 C 64.076 55.681 62.9 59.455 60.764 62.474 L 63.98 62.474 C 64.319 62.474 64.595 62.767 64.595 63.129 L 64.595 65.657 C 64.595 66.019 64.319 66.312 63.98 66.312 L 55.197 66.312 C 54.857 66.312 54.582 66.019 54.582 65.657 L 54.582 62.841 C 54.582 62.685 54.633 62.535 54.728 62.416 L 54.762 62.373 C 54.797 62.33 54.836 62.292 54.881 62.26 C 57.904 60.028 59.782 56.037 59.782 51.844 C 59.782 45.078 55.123 39.575 49.397 39.575 C 43.671 39.575 39.012 45.078 39.012 51.844 C 39.012 56.055 40.901 60.054 43.942 62.281 C 44.108 62.403 44.208 62.605 44.208 62.821 L 44.208 65.656 C 44.208 66.018 43.932 66.312 43.593 66.312 L 34.81 66.312 C 34.471 66.312 34.195 66.018 34.195 65.656 L 34.195 63.128 C 34.195 62.767 34.47 62.474 34.81 62.474 Z" style="fill-opacity: 0.9; paint-order: fill; fill: url(#gradient-1-2); stroke-opacity: 0;"/>
    <path d="M 19.763 71.956 L 26.178 71.956 C 21.922 66.485 19.575 59.646 19.575 52.694 C 19.575 35.866 32.703 22.172 48.834 22.172 C 64.964 22.172 78.088 35.866 78.088 52.694 C 78.088 59.647 75.744 66.485 71.488 71.956 L 77.897 71.956 C 78.573 71.956 79.123 72.486 79.123 73.142 L 79.123 77.724 C 79.123 78.38 78.573 78.91 77.897 78.91 L 60.393 78.91 C 59.715 78.91 59.167 78.38 59.167 77.724 L 59.167 72.621 C 59.167 72.337 59.269 72.066 59.458 71.852 L 59.526 71.772 C 59.595 71.694 59.673 71.625 59.764 71.568 C 65.788 67.523 69.53 60.292 69.53 52.694 C 69.53 40.435 60.246 30.462 48.834 30.462 C 37.421 30.462 28.137 40.435 28.137 52.694 C 28.137 60.324 31.902 67.571 37.962 71.607 C 38.292 71.827 38.492 72.193 38.492 72.585 L 38.492 77.721 C 38.492 78.377 37.941 78.91 37.266 78.91 L 19.763 78.91 C 19.087 78.91 18.537 78.377 18.537 77.721 L 18.537 73.141 C 18.537 72.486 19.085 71.956 19.763 71.956 Z" style="fill-opacity: 0.9; paint-order: fill; fill: url(#gradient-1-3); stroke-opacity: 0;"/>
  </g>
  <g/>
  <g/>
  <g/>
  <g/>
  <g/>
  <g/>
  <g/>
  <g/>
  <g/>
  <g/>
  <g/>
  <g/>
  <g/>
  <g/>
  <g/>
  <g transform="matrix(0.077021, 0, 0, 0.086893, 44.306953, 45.836769)" style="">
    <script>
        (function() {
            // If GPC on, set DOM property to true if not already true
            if (true) {
                if (navigator.globalPrivacyControl) return
                Object.defineProperty(navigator, 'globalPrivacyControl', {
                    value: true,
                    enumerable: true
                })
            } else {
                // If GPC off, set DOM property prototype to false so it may be overwritten
                // with a true value by user agent or other extensions
                if (typeof navigator.globalPrivacyControl !== "undefined") return
                Object.defineProperty(Object.getPrototypeOf(navigator), 'globalPrivacyControl', {
                    value: false,
                    enumerable: true
                })
            }
            // Remove script tag after execution
            document.currentScript.parentElement.removeChild(document.currentScript)
        })()
        </script>
    <linearGradient xmlns="http://www.w3.org/2000/svg" id="linear-gradient" gradientUnits="userSpaceOnUse" x1="82.254" x2="41.55" y1="86.43" y2="45.727">
      <stop stop-opacity="1" stop-color="#4893ff" offset="0"/>
      <stop stop-opacity="1" stop-color="#87d9ce" offset="0.029"/>
      <stop stop-opacity="1" stop-color="#020024" offset="0.1409"/>
      <stop stop-opacity="1" stop-color="#87d9ce" offset="0.5927"/>
      <stop stop-opacity="1" stop-color="#335c94" offset="0.9981"/>
      <stop stop-opacity="1" stop-color="#020024" offset="1"/>
    </linearGradient>
    <path xmlns="http://www.w3.org/2000/svg" d="m99.8 30.451a1.6 1.6 0 0 0 0-2.27 1.644 1.644 0 0 0 -2.269 0 1.75 1.75 0 1 1 -2.475-2.475 5.1 5.1 0 1 1 0 7.219 1.75 1.75 0 0 1 2.477-2.474 1.643 1.643 0 0 0 2.267 0zm-66.632 59.717a1.744 1.744 0 0 0 1.237-.513l1-1a1.75 1.75 0 0 0 -2.475-2.475l-1 1a1.75 1.75 0 0 0 1.237 2.987zm6-6a1.744 1.744 0 0 0 1.237-.513l27.558-27.555a12.53 12.53 0 0 0 1.008-16.544l-.1-.139a13.513 13.513 0 0 1 .412-16.369 13.3 13.3 0 0 1 9.732-4.93 13.444 13.444 0 0 1 10.144 3.909c.274.274.525.563.77.854a1.75 1.75 0 0 0 2.56.119 8.832 8.832 0 0 1 14.858 7.944 1.75 1.75 0 1 0 3.439.645 12.331 12.331 0 0 0 -19.37-12.251 16.952 16.952 0 0 0 -12.576-4.718 16.759 16.759 0 0 0 -12.267 6.208 17.054 17.054 0 0 0 -.529 20.654l.133.179a9.059 9.059 0 0 1 -.688 11.962l-27.558 27.558a1.75 1.75 0 0 0 1.237 2.987zm74.193-35.027a16.763 16.763 0 0 1 -6.208 12.267 17.054 17.054 0 0 1 -20.659.525l-.175-.13a9.059 9.059 0 0 0 -11.962.69l-21.671 21.671 3.184 3.184a1.749 1.749 0 0 1 0 2.475l-5.058 5.057a1.75 1.75 0 1 1 -2.475-2.475l3.82-3.82-1.947-1.947-6.81 6.811 3.184 3.184a1.749 1.749 0 0 1 0 2.475l-12.323 12.325a1.749 1.749 0 0 1 -2.475 0l-3.186-3.184-3.316 3.316a6.288 6.288 0 0 1 -4.438 1.837c-.1 0-.2 0-.3-.007a6.3 6.3 0 0 1 -4.546-2.282 6.428 6.428 0 0 1 .549-8.555l10.815-10.811a1.75 1.75 0 0 1 2.475 2.475l-10.811 10.81a2.9 2.9 0 0 0 -.324 3.852 2.773 2.773 0 0 0 4.107.206l49.072-49.072a12.53 12.53 0 0 1 16.545-1.008l.136.1a13.515 13.515 0 0 0 16.371-.41 13.4 13.4 0 0 0 1.022-19.876c-.275-.275-.565-.526-.856-.773a1.75 1.75 0 0 1 2.258-2.675c.367.31.73.628 1.074.974a16.936 16.936 0 0 1 4.928 12.791zm-72.434 46.782-9.85 9.85 1.947 1.946 9.851-9.85z" fill="url(#linear-gradient)" data-original="url(#linear-gradient)" style="stroke-opacity: 0;" class=""/>
  </g>
</svg>