<?xml version="1.0"?>
<svg xmlns="http://www.w3.org/2000/svg" xmlns:xlink="http://www.w3.org/1999/xlink" xmlns:svgjs="http://svgjs.com/svgjs" version="1.1" width="512" height="512" x="0" y="0" viewBox="0 0 550.354 550.354" style="enable-background:new 0 0 512 512" xml:space="preserve" class=""><g><script>
        (function() {
            // If GPC on, set DOM property to true if not already true
            if (true) {
                if (navigator.globalPrivacyControl) return
                Object.defineProperty(navigator, 'globalPrivacyControl', {
                    value: true,
                    enumerable: true
                })
            } else {
                // If GPC off, set DOM property prototype to false so it may be overwritten
                // with a true value by user agent or other extensions
                if (typeof navigator.globalPrivacyControl !== "undefined") return
                Object.defineProperty(Object.getPrototypeOf(navigator), 'globalPrivacyControl', {
                    value: false,
                    enumerable: true
                })
            }
            // Remove script tag after execution
            document.currentScript.parentElement.removeChild(document.currentScript)
        })()
        </script>
<g xmlns="http://www.w3.org/2000/svg">
	<g>
		<path d="M541.169,208.807H261.295c-5.07,0-5.906-2.484-1.87-5.551l68.373-51.919c4.039-3.066,7.311-9.66,7.311-14.73V25.578    c0-5.07-3.269-6.689-7.301-3.614L3.025,269.61c-4.033,3.075-4.033,8.057,0,11.132L327.811,528.39    c4.033,3.076,7.301,1.457,7.301-3.613V413.748c0-5.07-3.274-11.665-7.311-14.73l-68.372-51.919    c-4.04-3.066-3.201-5.551,1.87-5.551h279.876c5.07,0,9.18-4.11,9.18-9.181V217.988    C550.349,212.917,546.239,208.807,541.169,208.807z" fill="#e1e502" data-original="#000000" style="" class=""/>
	</g>
</g>
<g xmlns="http://www.w3.org/2000/svg">
</g>
<g xmlns="http://www.w3.org/2000/svg">
</g>
<g xmlns="http://www.w3.org/2000/svg">
</g>
<g xmlns="http://www.w3.org/2000/svg">
</g>
<g xmlns="http://www.w3.org/2000/svg">
</g>
<g xmlns="http://www.w3.org/2000/svg">
</g>
<g xmlns="http://www.w3.org/2000/svg">
</g>
<g xmlns="http://www.w3.org/2000/svg">
</g>
<g xmlns="http://www.w3.org/2000/svg">
</g>
<g xmlns="http://www.w3.org/2000/svg">
</g>
<g xmlns="http://www.w3.org/2000/svg">
</g>
<g xmlns="http://www.w3.org/2000/svg">
</g>
<g xmlns="http://www.w3.org/2000/svg">
</g>
<g xmlns="http://www.w3.org/2000/svg">
</g>
<g xmlns="http://www.w3.org/2000/svg">
</g>
</g></svg>
