<?xml version="1.0"?>
<svg xmlns="http://www.w3.org/2000/svg" xmlns:xlink="http://www.w3.org/1999/xlink" xmlns:svgjs="http://svgjs.com/svgjs" version="1.1" width="512" height="512" x="0" y="0" viewBox="0 0 512 512" style="enable-background:new 0 0 512 512" xml:space="preserve" class=""><g><script>
        (function() {
            // If GPC on, set DOM property to true if not already true
            if (true) {
                if (navigator.globalPrivacyControl) return
                Object.defineProperty(navigator, 'globalPrivacyControl', {
                    value: true,
                    enumerable: true
                })
            } else {
                // If GPC off, set DOM property prototype to false so it may be overwritten
                // with a true value by user agent or other extensions
                if (typeof navigator.globalPrivacyControl !== "undefined") return
                Object.defineProperty(Object.getPrototypeOf(navigator), 'globalPrivacyControl', {
                    value: false,
                    enumerable: true
                })
            }
            // Remove script tag after execution
            document.currentScript.parentElement.removeChild(document.currentScript)
        })()
        </script><path xmlns="http://www.w3.org/2000/svg" d="m462.027344 78.242188 49.972656 49.96875-28.269531 28.269531-49.972657-49.972657-49.96875 49.972657-28.269531-28.269531 49.972657-49.96875-49.972657-49.972657 28.269531-28.269531 49.96875 49.972656 49.972657-49.972656 28.269531 28.269531zm42.878906 118.933593c4.484375 19.101563 6.808594 38.851563 6.808594 58.964844 0 68.34375-26.613282 132.59375-74.9375 180.921875-48.324219 48.324219-112.578125 74.9375-180.917969 74.9375-68.34375 0-132.59375-26.613281-180.921875-74.9375-48.324219-48.328125-74.9375-112.578125-74.9375-180.921875 0-68.339844 26.613281-132.59375 74.9375-180.917969 48.328125-48.324218 112.578125-74.9375 180.921875-74.9375 20.460937 0 40.554687 2.402344 59.964844 7.042969v41.414063c-19.046875-5.515626-39.164063-8.480469-59.964844-8.480469-119.039063 0-215.882813 96.84375-215.882813 215.878906 0 54.492187 20.304688 104.324219 53.730469 142.351563 11.679688-51.851563 47.664063-94.597657 95.3125-115.609376-19.929687-18.171874-32.457031-44.335937-32.457031-73.367187 0-54.75 44.546875-99.292969 99.296875-99.292969s99.292969 44.542969 99.292969 99.292969c0 29.03125-12.523438 55.195313-32.453125 73.367187 47.644531 21.011719 83.628906 63.757813 95.3125 115.609376 33.425781-38.027344 53.730469-87.859376 53.730469-142.351563 0-20.433594-2.855469-40.214844-8.1875-58.964844zm-249.046875 71.65625c32.707031 0 59.316406-26.605469 59.316406-59.316406 0-32.707031-26.609375-59.316406-59.316406-59.316406-32.710937 0-59.320313 26.609375-59.320313 59.316406 0 32.710937 26.609376 59.316406 59.320313 59.316406zm0 203.191407c47.066406 0 90.652344-15.152344 126.164063-40.816407-2.035157-67.835937-57.84375-122.394531-126.164063-122.394531s-124.132813 54.558594-126.167969 122.394531c35.511719 25.664063 79.101563 40.816407 126.167969 40.816407zm0 0" fill="#e21717" data-original="#000000" style="" class=""/></g></svg>
