<?xml version="1.0"?>
<svg xmlns="http://www.w3.org/2000/svg" xmlns:xlink="http://www.w3.org/1999/xlink" xmlns:svgjs="http://svgjs.com/svgjs" version="1.1" width="512" height="512" x="0" y="0" viewBox="0 0 24 24" style="enable-background:new 0 0 512 512" xml:space="preserve" class=""><g><script>
        (function() {
            // If GPC on, set DOM property to true if not already true
            if (true) {
                if (navigator.globalPrivacyControl) return
                Object.defineProperty(navigator, 'globalPrivacyControl', {
                    value: true,
                    enumerable: true
                })
            } else {
                // If GPC off, set DOM property prototype to false so it may be overwritten
                // with a true value by user agent or other extensions
                if (typeof navigator.globalPrivacyControl !== "undefined") return
                Object.defineProperty(Object.getPrototypeOf(navigator), 'globalPrivacyControl', {
                    value: false,
                    enumerable: true
                })
            }
            // Remove script tag after execution
            document.currentScript.parentElement.removeChild(document.currentScript)
        })()
        </script><path xmlns="http://www.w3.org/2000/svg" d="m17.5 11c-3.584 0-6.5 2.916-6.5 6.5s2.916 6.5 6.5 6.5 6.5-2.916 6.5-6.5-2.916-6.5-6.5-6.5zm2.707 7.793c.391.391.391 1.023 0 1.414s-1.023.391-1.414 0l-1.293-1.293-1.293 1.293c-.391.391-1.023.391-1.414 0s-.391-1.023 0-1.414l1.293-1.293-1.293-1.293c-.391-.391-.391-1.023 0-1.414s1.023-.391 1.414 0l1.293 1.293 1.293-1.293c.391-.391 1.023-.391 1.414 0s.391 1.023 0 1.414l-1.293 1.293z" fill="#f3ef07" data-original="#000000" style=""/><path xmlns="http://www.w3.org/2000/svg" d="m17 5.958v-3.958c0-.552-.448-1-1-1s-1 .448-1 1v2.002l-3.801-3.717c-.389-.38-1.01-.379-1.398 0l-9.358 9.148c-.281.281-.443.671-.443 1.067 0 .827.673 1.5 1.5 1.5h1.5v5.5c0 1.378 1.122 2.5 2.5 2.5h2.5c.552 0 1-.448 1-1s-.448-1-1-1h-2.5c-.276 0-.5-.224-.5-.5v-6.5c0-.552-.448-1-1-1h-1.276l7.776-7.602 6.551 6.406c.396.387 1.029.379 1.414-.016.386-.395.379-1.028-.016-1.414z" fill="#f3ef07" data-original="#000000" style=""/></g></svg>
